PathFileType	4	(X/Y/Z)	5_2_71_p0_0-277_filt_butterworth.trc
DataRate	CameraRate	NumFrames	NumMarkers	Units	OrigDataRate	OrigDataStartFrame	OrigNumFrames
58.0	58.0	5	27	m	58.0	0	277
Frame#	Time	RHip			RKnee			RAnkle			RBigToe			RSmallToe			RHeel			LHip			LKnee			LAnkle			LBigToe			LSmallToe			LHeel			Neck			Head			Nose			RShoulder			RElbow			RWrist			RThumb			RIndex			RPinky			LShoulder			LElbow			LWrist			LThumb			LIndex			LPinky			
		X1	Y1	Z1	X2	Y2	Z2	X3	Y3	Z3	X4	Y4	Z4	X5	Y5	Z5	X6	Y6	Z6	X7	Y7	Z7	X8	Y8	Z8	X9	Y9	Z9	X10	Y10	Z10	X11	Y11	Z11	X12	Y12	Z12	X13	Y13	Z13	X14	Y14	Z14	X15	Y15	Z15	X16	Y16	Z16	X17	Y17	Z17	X18	Y18	Z18	X19	Y19	Z19	X20	Y20	Z20	X21	Y21	Z21	X22	Y22	Z22	X23	Y23	Z23	X24	Y24	Z24	X25	Y25	Z25	X26	Y26	Z26	X27	Y27	Z27	
0	0.0	0.42961494390812116	0.6069456478745205	0.8084442459435373	0.4101756474437154	0.6450870238260158	1.2626234048581852	0.4232532931692315	0.7513755447526994	1.654594714870589	0.37196335905398176	0.5857128186714159	1.6841125103387897	0.42679559677841916	0.6194719286294277	1.6819018455461487	0.4048493804132817	0.8520534267961273	1.72892263411366	0.22645251928365806	0.5555294822549511	0.830877105504865	0.24681603189771462	0.5896596456985307	1.2580874893415774	0.2273010418279805	0.8248860297785068	1.7112659545497366	0.23467159916604793	0.5376466644000405	1.6838749316376291	0.17108684563372473	0.6150219452543836	1.6885570850490788	0.23197485529439013	0.8771351474786447	1.7640419096525597	0.27054255660469406	0.5317446698669296	0.2993901354387642	0.2747948959451531	0.4278172982886034	0.054370218809692374	0.27474545120968	0.36339076508592727	0.20260787345410183	0.43917409300514	0.5473329603322618	0.3693223651654215	0.49578324013947955	0.6153270053856544	0.6345764645677772	0.39771807818254695	0.46158680978279715	0.80281357540774	0.3216422525437028	0.4395410574414176	0.882648609367665	0.3126366062003603	0.45348232621612683	0.8946151091245673	0.32180913308139386	0.4434775107234085	0.8922813989022121	0.146703629050557	0.5343882082318998	0.38653789099069646	0.13029440099374134	0.5019885362317188	0.6400893037205878	0.2794048575586075	0.4484712881725101	0.8029076831741631	0.3456898731004304	0.46422281754020134	0.867222071748242	0.3500583128804033	0.46995476458031693	0.8931621874266709	0.32030854919879365	0.4587670423011583	0.8947020974600373
1	0.0172413793103448	0.4294400911076139	0.6057861773518901	0.8086521582701036	0.409845397866165	0.6452080371136347	1.261251156785094	0.42365115441698187	0.7499414839587106	1.651100833831641	0.37440635839380787	0.5803426591577878	1.6783961232808697	0.4234476260818306	0.6159697973914049	1.6802812807666219	0.40694332050853593	0.8446283295130262	1.7257763771250074	0.22649242415525922	0.554885818373192	0.8320606763625433	0.24753599110806385	0.5891198917319428	1.256680032364141	0.2302343105978475	0.8063172846295545	1.7037313150317057	0.2382728462686331	0.5281267129634281	1.6792774358089835	0.175035326214333	0.6047384806491614	1.6850762867661362	0.23209057165447233	0.8712932685323963	1.7616060560084912	0.2695181943334488	0.5328507549447884	0.2994459000510824	0.27478979662878084	0.42728569092397606	0.0532051332888598	0.27402706202639904	0.35927899436021404	0.20327345141603542	0.4326095196732373	0.5505486323413075	0.3705700106422157	0.496349945826849	0.6121032577739416	0.6360741898168011	0.39720082110554983	0.46289435235369414	0.8030495188353031	0.321741313075547	0.43970946706391484	0.8834761468219602	0.31501962660297594	0.45411924184247243	0.8943762721342959	0.32232010890719304	0.44467003207772493	0.8924217934945666	0.1460282452577863	0.5261698687811315	0.3859540127980342	0.13024679075772697	0.5022709327556658	0.6409653128345957	0.282695872545429	0.4408042199010865	0.8013753935878739	0.34459617527698055	0.4635627531373445	0.868212491877978	0.3497734613987055	0.4690634335403181	0.8930138246291975	0.3204163333027959	0.4582128662345195	0.8947769939635912
2	0.0344827586206896	0.42894867628433164	0.6024109324498683	0.8092419450076195	0.40950645762849874	0.6448347918425991	1.2597927042465937	0.42368214855007125	0.7485251681436363	1.648030131842454	0.37613652032282796	0.5766642312070767	1.6746444921945987	0.4214405210158398	0.6138164145037494	1.6792140828240565	0.4084558349739521	0.840061128939647	1.7238975877951928	0.22586632212024096	0.5541936394111934	0.8334267773204431	0.24787930187282575	0.59025294709439	1.256548430816624	0.23235929108597758	0.798353554076008	1.7003766042317607	0.24084876073708028	0.527435620438293	1.6788950899931168	0.17794318236097506	0.602203447615203	1.6853107242505048	0.23375763387993387	0.8668358845962578	1.75944513633448	0.2671387587166226	0.5357156526724096	0.29958769616156494	0.2746567868808306	0.4268126264500762	0.05208371741842677	0.2733123011634509	0.35527921657142275	0.203672812724243	0.4285635356915021	0.5507085811458992	0.3719585794243923	0.4955646076365667	0.6079896005287541	0.6361823996477942	0.3959410895657297	0.4661383355711983	0.803680606586948	0.3217602499241982	0.43996606127370397	0.8850088250292977	0.316473063498974	0.45470877075889193	0.8942612415530939	0.32282943998225067	0.4479139558307843	0.8930360558165575	0.14527572434556324	0.521250474905775	0.38621216349042353	0.13027335602515192	0.5025348642740867	0.6415495438075085	0.2842840521888342	0.4353706358993776	0.8003565423780651	0.3443961549290535	0.4631881971022692	0.8691204539230484	0.3497510214265791	0.46818499075184944	0.8928503694447234	0.3205415117564633	0.45784970039473183	0.894876028955842
3	0.0517241379310344	0.42821603126312857	0.5973800637612954	0.8099569202005665	0.4090988961328313	0.6441785684397984	1.257888090200956	0.4233930845945816	0.747272225465121	1.645687958239679	0.3773018375537831	0.5740367266438895	1.6726878869819237	0.42087160979060345	0.6130965215564902	1.6787869978346814	0.40966350220175574	0.8379830583671847	1.7229403442296842	0.22465910700557415	0.553482670779138	0.8345120746944384	0.24720369233635814	0.5936301165129795	1.2574389497029987	0.2335073435790416	0.8006836046874094	1.701110805479836	0.24186745068770882	0.5336466864252112	1.6814560287942104	0.17933797904181792	0.6046362245586804	1.6878766968420202	0.2364442717118177	0.8632556925759577	1.7574303310265464	0.2638516635261605	0.5398045670161817	0.299793067312766	0.27410650944420956	0.4264429830835884	0.05134730774754142	0.2727644760709663	0.3524419090049918	0.20317709669915077	0.4272407024552597	0.5485481364041366	0.37273617675236315	0.49371883674062067	0.6041443917893329	0.6350696774005863	0.3941828845256513	0.47077371123796147	0.8045930727242284	0.32161400797693673	0.4402913164785751	0.8865042141365882	0.3168317683090382	0.4551886068132829	0.8942943226101234	0.3227274313104149	0.4526321550392076	0.8942267558311315	0.1439304363084857	0.5194007929724526	0.3869927878516405	0.13044916222636999	0.5026930631480533	0.6419748119646899	0.28421487349070046	0.43131113592480097	0.7997889991488856	0.3450571845384665	0.4629586435373559	0.8695360710309936	0.34988163342676726	0.46733856179258576	0.8926589964158888	0.3205877072999223	0.4577891599425267	0.8950254180405737
4	0.0689655172413793	0.4276085760153633	0.5930759851320304	0.8100044537938265	0.4086707211018087	0.6436736451678085	1.2557730382772756	0.4231026090318527	0.7464650645471594	1.6443631861830994	0.3780616124139715	0.5719750000378669	1.6717370369784668	0.4209896514028416	0.6130556746870844	1.6787226253127514	0.4106510820534328	0.8363536324728933	1.721700206290046	0.22355808385391535	0.552692978755294	0.8346042086841706	0.24513111262169088	0.5977373710983162	1.2586135274470553	0.23392809180743898	0.8057466137018934	1.703012652590076	0.24168462966106463	0.5394113431581118	1.6836146836962573	0.17940525433084886	0.6056405576490842	1.6895240140231829	0.2384896288808499	0.8605337570046669	1.755866371067175	0.26123571520752525	0.5429535895855702	0.29996341930501536	0.2729213776348856	0.42612549011917333	0.051173753072336035	0.27245738937869557	0.3512642739418829	0.2013093572304872	0.42703747964001487	0.5455389273242803	0.3719340085340129	0.4913796929852015	0.6009678412224021	0.6338970810877584	0.39284312977703184	0.47451033544909743	0.8053295134997115	0.32132775868598495	0.44051263754083564	0.8868279618092573	0.3162861851159599	0.4551403613504075	0.8943949967387815	0.32137145344964635	0.4563283747953997	0.895687912560095	0.14156495328851731	0.5186235393342868	0.3873106158047119	0.1307433414613223	0.5026622393212908	0.6428377376255299	0.2836368668687787	0.42706375184595785	0.7993954229649346	0.3454695024253311	0.46198253431455977	0.8693217206306044	0.34948300207398914	0.4660687922564415	0.8924161314263621	0.3202312446710969	0.4575321526430968	0.8953114737082106
